Coordinates
version=1
nRows=19
nColumns=36
inDegrees=yes

Units are S.I. units (second, meters, Newtons, ...)
If the header above contains a line with 'inDegrees', this indicates whether rotational values are in degrees (yes) or radians (no).

endheader
time	pelvis_tilt	pelvis_list	pelvis_rotation	pelvis_tx	pelvis_ty	pelvis_tz	hip_flexion_r	hip_adduction_r	hip_rotation_r	knee_angle_r	knee_angle_r_beta	ankle_angle_r	subtalar_angle_r	mtp_angle_r	hip_flexion_l	hip_adduction_l	hip_rotation_l	knee_angle_l	knee_angle_l_beta	ankle_angle_l	subtalar_angle_l	mtp_angle_l	lumbar_extension	lumbar_bending	lumbar_rotation	arm_flex_r	arm_add_r	arm_rot_r	elbow_flex_r	pro_sup_r	arm_flex_l	arm_add_l	arm_rot_l	elbow_flex_l	pro_sup_l
      0.00000000	     -3.08786006	     -5.70181216	      6.78530300	     -0.00973554	      0.92993213	     -0.26489010	     25.83455291	      3.86356192	     -3.98354334	      9.91998838	      0.17313646	    -10.05397540	    -11.16850193	     -5.62919931	    -11.41664694	    -11.93068057	     -1.37353728	     27.38711807	      0.47799538	      1.09709870	      0.27393460	     -5.62919931	     -5.16517251	      2.74718164	    -11.95031763	     -2.89130640	     -7.72321631	     -1.73213014	     62.21215306	    108.84965598	      8.64861126	    -17.97220105	     -8.19730045	     45.49802293	    105.17660675
      0.01000000	     -3.08812976	     -6.38740477	      6.81258782	      0.00369260	      0.93135089	     -0.26228444	     25.66393360	      4.76875868	     -4.37575058	     11.17899723	      0.19511031	     -8.92532532	    -11.58629357	     -5.66362090	     -9.41853225	    -12.80666018	     -0.74987540	     31.60148135	      0.55154990	     -1.75464161	     -2.14538000	     -5.66362090	     -5.22054966	      3.79975746	    -11.52176240	     -2.74078130	     -7.86077845	     -1.75233605	     62.14570927	    108.85416444	      8.23501175	    -17.49389390	     -7.83680455	     45.77530197	    105.26726184
      0.02000000	     -3.10288866	     -6.73753729	      6.80651148	      0.01679638	      0.93283132	     -0.25999466	     25.53579272	      5.26369400	     -4.92279241	     12.54351321	      0.21892561	     -7.51582131	    -11.11684320	     -5.73963530	     -7.52899899	    -13.00887405	      0.49550090	     35.44374629	      0.61861007	     -5.65818766	     -6.13191989	     -5.73963530	     -5.36975349	      4.46176138	    -11.02475233	     -2.49314151	     -7.96011838	     -1.67521232	     61.88490371	    108.87863970	      7.95638374	    -17.03504803	     -7.40824710	     45.97060169	    105.36870488
      0.03000000	     -3.05732111	     -7.23423602	      6.78197503	      0.02999272	      0.93427172	     -0.25768254	     25.17155435	      5.94629544	     -5.51556438	     13.54090699	      0.23633341	     -6.11771947	    -10.63776839	     -5.82644103	     -5.64709226	    -13.46600187	      1.29058526	     39.31723916	      0.68621528	     -8.46135497	     -8.57392145	     -5.82644103	     -5.52148389	      5.28545345	    -10.49301071	     -2.28514454	     -8.11570464	     -1.62056505	     61.80877457	    108.92684842	      7.61394849	    -16.56793699	     -6.97279407	     46.18399307	    105.45764839
      0.04000000	     -2.97519403	     -7.73344367	      6.70847129	      0.04307904	      0.93576659	     -0.25535446	     24.56517346	      6.71242377	     -5.87481098	     14.09460700	      0.24599730	     -5.16389925	    -10.66735640	     -5.85052768	     -3.76117753	    -13.93607116	      1.88692536	     43.16003051	      0.75328464	     -9.78855999	     -9.74435366	     -5.85052768	     -5.71226820	      6.09486515	     -9.85043380	     -2.05617686	     -8.28209488	     -1.53267192	     61.78341810	    108.94915186	      7.24942554	    -16.05213300	     -6.56749312	     46.44816786	    105.52736571
      0.05000000	     -2.97043482	     -8.02710931	      6.57948963	      0.05587427	      0.93729244	     -0.25314520	     23.95199983	      7.24999963	     -6.25209081	     14.51874747	      0.25339995	     -4.15955632	    -10.33916688	     -5.87627324	     -1.78151047	    -14.03627456	      2.52398160	     46.84785619	      0.81764934	    -10.61038040	    -11.19938323	     -5.87627324	     -5.81767789	      6.61653190	     -9.16445048	     -1.75628214	     -8.40369978	     -1.37476236	     61.69724042	    108.98135697	      6.89687151	    -15.56670265	     -6.07708516	     46.62811651	    105.59599881
      0.06000000	     -2.94402686	     -8.17589507	      6.38997638	      0.06846936	      0.93902881	     -0.25094662	     23.18843412	      7.67252015	     -6.55426534	     14.71807589	      0.25687888	     -3.15446454	     -9.85336584	     -5.89973854	      0.15289717	    -13.92052787	      3.02285123	     50.30617978	      0.87800847	    -10.72091994	    -12.37092623	     -5.89973854	     -5.99008775	      6.94606661	     -8.39077686	     -1.40121227	     -8.49569402	     -1.16745687	     61.55092146	    109.01796934	      6.55826247	    -15.11023312	     -5.55773517	     46.74990573	    105.65800676
      0.07000000	     -2.97493919	     -8.14589506	      6.20176550	      0.08078354	      0.94084126	     -0.24887790	     22.50544096	      7.82687613	     -7.13850238	     15.02455632	      0.26222798	     -1.61557772	     -8.31598489	     -5.97479626	      2.17648750	    -13.54611508	      3.45822109	     53.56917713	      0.93495852	    -10.21314200	    -13.07025156	     -5.97479626	     -6.06825757	      7.01210799	     -7.58351335	     -1.02521408	     -8.56009283	     -0.90108899	     61.31623065	    109.12942589	      6.28900214	    -14.75340472	     -4.76426951	     46.68754153	    105.70483680
      0.08000000	     -2.68598089	     -7.90969763	      5.88062369	      0.09290379	      0.94342044	     -0.24655193	     21.26076439	      7.96746700	     -7.07273805	     14.88575136	      0.25980537	     -1.22362765	     -8.18518860	     -5.98153370	      3.68575743	    -12.99546749	      3.50192367	     56.32029331	      0.98297455	     -9.88428689	    -13.52589309	     -5.98153370	     -6.66489908	      6.80062862	     -6.59211392	     -0.48443647	     -8.47100731	     -0.69876876	     61.13699875	    109.14159834	      6.11673222	    -14.32104415	     -4.52203366	     46.78776857	    105.73146941
      0.09000000	     -2.93311174	     -8.02354311	      5.77090923	      0.10484501	      0.94506168	     -0.24457248	     20.57467167	      8.34711192	     -6.96971650	     14.63173514	      0.25537195	     -0.22704253	     -7.78306177	     -5.99849152	      6.07698632	    -12.71920189	      3.90628351	     59.21064453	      1.03342070	     -8.57107142	    -14.05409091	     -5.99849152	     -6.39677433	      6.97100525	     -5.85359619	     -0.10108687	     -8.53802957	     -0.44097407	     60.90490117	    109.17625263	      5.63904194	    -13.92121829	     -3.84885171	     46.89235554	    105.79522697
      0.10000000	     -3.18236580	     -7.85811785	      5.56320788	      0.11666803	      0.94694101	     -0.24242595	     19.92961533	      8.40503124	     -7.14846855	     14.51205484	      0.25328314	      0.76384553	     -6.94457101	     -6.03110226	      8.35386687	    -12.20260296	      3.95472856	     61.66370495	      1.07623468	     -7.15099868	    -13.49687811	     -6.03110226	     -6.15293624	      6.74306029	     -5.12090677	      0.37649553	     -8.46152393	     -0.02295094	     60.60094343	    109.24350151	      5.20174206	    -13.73036708	     -3.05722865	     46.75308780	    105.82252562
      0.11000000	     -3.03759981	     -7.56247130	      5.37672980	      0.12843592	      0.94961659	     -0.24046769	     18.71788398	      8.40272113	     -7.03205420	     14.14011645	      0.24679159	      1.16249123	     -6.62393844	     -6.04004736	     10.02829746	    -11.51868139	      3.91493835	     63.51315964	      1.10851375	     -6.73612715	    -13.54172829	     -6.04004736	     -6.46568326	      6.36924168	     -4.21594482	      0.88380488	     -8.33105422	      0.18327053	     60.40671477	    109.25920926	      4.93339293	    -13.34463338	     -2.76990332	     46.76277938	    105.83668992
      0.12000000	     -3.19355661	     -7.42502648	      5.24076286	      0.14028465	      0.95177715	     -0.23859726	     17.79431671	      8.48994698	     -7.08126632	     13.68940997	      0.23892528	      2.28421241	     -5.38952700	     -6.10067301	     12.10269084	    -11.03450696	      3.86436540	     65.25512434	      1.13891677	     -5.16205637	    -12.44497092	     -6.10067301	     -6.22098318	      6.14901447	     -3.53339441	      1.40735068	     -8.25773511	      0.64635307	     60.05840880	    109.35050219	      4.45505450	    -13.17020490	     -1.93765853	     46.60927787	    105.80287314
      0.13000000	     -3.09861371	     -7.13292581	      5.07125032	      0.15212678	      0.95445800	     -0.23681456	     16.51688286	      8.46862711	     -6.93527531	     13.08930532	      0.22845147	      2.58337172	     -5.13284085	     -6.10841650	     13.73115197	    -10.39073006	      3.61522306	     66.43324792	      1.15947891	     -4.92168837	    -12.57932452	     -6.10841650	     -6.38627528	      5.74881620	     -2.69994532	      1.87369623	     -8.08750967	      0.80161708	     59.97881120	    109.36353339	      4.04823046	    -12.83488157	     -1.73843589	     46.59201820	    105.80653799
      0.14000000	     -3.09258080	     -6.96048752	      4.89241859	      0.16412565	      0.95693471	     -0.23506038	     15.19039447	      8.60341888	     -6.43535701	     12.19950324	      0.21292150	      3.11995626	     -4.56043619	     -6.12537089	     15.40569948	     -9.90252340	      3.32293239	     67.32384428	      1.17502275	     -4.31356270	    -12.55971997	     -6.12537089	     -6.31103743	      5.46490544	     -1.96791421	      2.37259485	     -7.93031733	      1.07614396	     59.83052902	    109.39031170	      3.45708736	    -12.59423488	     -1.33333450	     46.57738821	    105.81527038
      0.15000000	     -3.01678605	     -6.68229148	      4.71105515	      0.17606914	      0.95949865	     -0.23346866	     13.82633675	      8.58114031	     -6.12112015	     11.39917163	      0.19895308	      3.49247179	     -4.11707909	     -6.13787560	     16.89778262	     -9.29784564	      2.95431350	     67.83678603	      1.18397527	     -3.78416714	    -12.50510177	     -6.13787560	     -6.34437129	      5.05635288	     -1.18764056	      2.83112540	     -7.78500953	      1.33316996	     59.79867288	    109.41720935	      2.92265900	    -12.33225038	     -1.04469347	     46.58241100	    105.81988107
      0.16000000	     -2.93153543	     -6.37576453	      4.51753633	      0.18799491	      0.96196486	     -0.23193114	     12.44731822	      8.51215545	     -5.80319254	     10.57492585	      0.18456727	      3.83100414	     -3.70659613	     -6.14779171	     18.31570335	     -8.73732316	      2.41941180	     68.04305229	      1.18757530	     -3.22229077	    -12.47492247	     -6.14779171	     -6.37297023	      4.59021121	     -0.41931569	      3.28466191	     -7.67688909	      1.54534841	     59.86302522	    109.44354456	      2.35808073	    -12.11768362	     -0.81389477	     46.59218478	    105.82321356
      0.17000000	     -2.80688014	     -6.07711955	      4.27499066	      0.19999580	      0.96436669	     -0.23041552	     10.98967596	      8.45675931	     -5.22875021	      9.71728797	      0.16959867	      4.20320551	     -3.18147447	     -6.16043099	     19.55066538	     -8.22078240	      1.81664938	     67.88178249	      1.18476061	     -2.45391817	    -12.37311609	     -6.16043099	     -6.44232472	      4.14088266	      0.36612306	      3.72804264	     -7.53294140	      1.78996458	     60.00562321	    109.47653214	      1.74575519	    -11.94137489	     -0.57904741	     46.66196630	    105.82580972
      0.18000000	     -2.54225562	     -5.75833406	      3.99365988	      0.21192973	      0.96677392	     -0.22885053	      9.41816784	      8.37148939	     -4.72342808	      8.92016350	      0.15568622	      4.65900588	     -2.63577042	     -6.19562162	     20.55357668	     -7.79805905	      1.05403800	     67.46381835	      1.17746576	     -1.33742716	    -11.79102915	     -6.19562162	     -6.70837990	      3.64439705	      1.18964638	      4.22385973	     -7.41698610	      2.04794687	     60.24494827	    109.51679344	      1.15958782	    -11.79343297	     -0.40328364	     46.85083679	    105.78494626
